<svg id="Layer_1" data-name="Layer 1" xmlns="http://www.w3.org/2000/svg" width="329.02" height="259.03" viewBox="0 0 329.02 259.03">
  <defs>
    <style>
      .cls-1 {
        fill: #8373ce;
      }

      .cls-2 {
        fill: #fff;
      }

      .cls-3 {
        fill: #261865;
      }
    </style>
  </defs>
  <g>
    <path class="cls-1" d="M312.19,48,298.38,8.89a5.33,5.33,0,0,0-5-3.56H66.67a5.34,5.34,0,0,0-5,3.56L47.83,48a5.34,5.34,0,0,0,5,7.11H65.34V223.48A30.26,30.26,0,0,0,95.56,253.7h168.9a30.26,30.26,0,0,0,30.22-30.22V55.11h12.48a5.34,5.34,0,0,0,5-7.11Z"/>
    <path class="cls-2" d="M205.79,103.35a31.11,31.11,0,1,1,31.11,31.12A31.11,31.11,0,0,1,205.79,103.35Z"/>
    <path class="cls-3" d="M243.73,100a7.11,7.11,0,0,1-7.12-7.11,7,7,0,0,1,.61-2.86l-.32,0A13.37,13.37,0,1,0,249,97.7,7.1,7.1,0,0,1,243.73,100Z"/>
    <path class="cls-2" d="M61.39,162.33C16.75,153.51,2.52,125.57,5.78,115.7,17.31,80.75,189,103.5,166.94,189.22c-3.2,12.42-15.81,20-32.1,23.69-39.62,8.89-101-5.71-101.21-31.79-.06-6.69,10-19.84,34-17.71C67.66,163.41,74.12,164.85,61.39,162.33Z"/>
    <path class="cls-3" d="M327.1,99.26,300,76.69V60.45h7.15a10.67,10.67,0,0,0,10.06-14.22L303.41,7.12A10.65,10.65,0,0,0,293.36,0H66.67A10.65,10.65,0,0,0,56.61,7.12L42.8,46.23A10.67,10.67,0,0,0,52.86,60.45H60V94.93C31,93,5.78,98.67.71,114c-2.2,6.68.79,16.38,7.82,25.3,8.53,10.85,35.31,35.52,99.22,30.32a5.33,5.33,0,1,0-.86-10.63c-58.78,4.79-82.51-16.79-90-26.28-5.72-7.27-6.76-13.28-6.07-15.37C15,104.88,56,100.18,98.07,112.51c18.13,5.31,76.29,26.45,63.7,75.38a5.34,5.34,0,0,0,3.84,6.49,5.58,5.58,0,0,0,1.33.17,5.32,5.32,0,0,0,5.16-4c10.1-39.27-16.45-72.27-71-88.27A194.87,194.87,0,0,0,70.68,96V60.45H289.35v163a24.92,24.92,0,0,1-24.89,24.89H95.56a24.92,24.92,0,0,1-24.88-24.89V216a154.1,154.1,0,0,0,38.48,4.89A124.13,124.13,0,0,0,136,218.12a5.33,5.33,0,1,0-2.34-10.41c-28.77,6.45-69.42-.09-87-14-5.09-4-7.7-8.29-7.74-12.64a5.33,5.33,0,1,0-10.66.1c.07,7.62,4.14,14.84,11.77,20.89A72.22,72.22,0,0,0,60,212.64v10.84A35.55,35.55,0,0,0,95.56,259h168.9A35.55,35.55,0,0,0,300,223.48V130l27.09-22.57A5.33,5.33,0,0,0,327.1,99.26ZM66.67,10.67H293.36l13.8,39.11H52.86Z"/>
  </g>
</svg>
